<?xml version="1.0" encoding="UTF-8"?>
<svg id="Layer_2" data-name="Layer 2" xmlns="http://www.w3.org/2000/svg" viewBox="0 0 1154.19 204.25">
  <defs>
    <style>
      .cls-1 {
        fill: none;
      }

      .cls-2 {
        fill: #020202;
      }
    </style>
  </defs>
  <g id="Layer_1-2" data-name="Layer 1">
    <g>
      <path class="cls-2" d="M210.23,25.99l-2.88,10.99-21.5,65.25c-6.35,19.25-12.33,35.35-18.85,50.65-4.26,10.01-8.58,17.45-14.02,24.12-11.19,13.74-27.54,21.42-45.34,21.42-1.31,0-2.62-.04-3.94-.12-18.7-1.19-35.34-10.92-45.66-26.69-3.86-5.88-7.07-11.79-9.79-18.04-6.31-14.47-11.58-28.3-16.13-42.27L5.25,28.96c-1.41-4.32-1.15-8.71.73-12.37,1.78-3.47,4.94-6.07,8.88-7.32,15.04-4.74,34.12-.96,40.02,13.57,1.97,4.85,3.67,9.94,5.35,16.02l9.63,34.75c3.24,11.67,6.84,22.3,11,32.51,3.17,7.79,6.94,14.17,11.54,19.52,3.79,4.41,8.87,6.94,14.32,7.11,5.51.18,10.78-2.03,14.89-6.23,3.88-3.97,7.27-9.14,10.34-15.8,4.05-8.77,6.73-15.74,8.68-22.6l12.48-43.83,5.69-18.93c5.11-16.97,25.11-20.94,41.34-16.07,7.63,2.29,11.97,9.47,10.09,16.7Z"/>
      <path class="cls-1" d="M870.98,81.34c-.83-7.79-2.42-15.2-4.73-22.02-2.31-6.79-8.02-10.65-15.7-10.65-.22,0-.43,0-.65.01-6.3.18-10.7,2.8-13.06,7.79-4.55,9.66-7.99,19.16-10.51,29.05l-4.72,18.54c-.06.26,0,.37.05.45.06.09.29.38.88.46,2.91.42,6.18-.04,10.33-1.44,10.87-3.67,22.4-7.84,33.05-13.53h.01c5.02-2.68,5.34-6.04,5.05-8.66ZM870.98,81.34c-.83-7.79-2.42-15.2-4.73-22.02-2.31-6.79-8.02-10.65-15.7-10.65-.22,0-.43,0-.65.01-6.3.18-10.7,2.8-13.06,7.79-4.55,9.66-7.99,19.16-10.51,29.05l-4.72,18.54c-.06.26,0,.37.05.45.06.09.29.38.88.46,2.91.42,6.18-.04,10.33-1.44,10.87-3.67,22.4-7.84,33.05-13.53h.01c5.02-2.68,5.34-6.04,5.05-8.66ZM870.98,81.34c-.83-7.79-2.42-15.2-4.73-22.02-2.31-6.79-8.02-10.65-15.7-10.65-.22,0-.43,0-.65.01-6.3.18-10.7,2.8-13.06,7.79-4.55,9.66-7.99,19.16-10.51,29.05l-4.72,18.54c-.06.26,0,.37.05.45.06.09.29.38.88.46,2.91.42,6.18-.04,10.33-1.44,10.87-3.67,22.4-7.84,33.05-13.53h.01c5.02-2.68,5.34-6.04,5.05-8.66ZM1070.83,81.29c-.88-8.44-2.62-16.19-5.31-23.68-1.82-5.02-5.99-7.26-9.17-8.25-5.35-1.66-11.94-.93-15.66,1.74-2.81,2.01-4.7,6.24-5.88,9.25-5.02,12.74-9.28,26.56-13.03,42.27-.18.74-.1,1.63.05,2.08.82.4,2.61.67,4.34.19,15.82-4.38,29.23-9.71,41-16.29,2.8-1.58,4-3.97,3.66-7.31ZM870.98,81.34c-.83-7.79-2.42-15.2-4.73-22.02-2.31-6.79-8.02-10.65-15.7-10.65-.22,0-.43,0-.65.01-6.3.18-10.7,2.8-13.06,7.79-4.55,9.66-7.99,19.16-10.51,29.05l-4.72,18.54c-.06.26,0,.37.05.45.06.09.29.38.88.46,2.91.42,6.18-.04,10.33-1.44,10.87-3.67,22.4-7.84,33.05-13.53h.01c5.02-2.68,5.34-6.04,5.05-8.66ZM1070.83,81.29c-.88-8.44-2.62-16.19-5.31-23.68-1.82-5.02-5.99-7.26-9.17-8.25-5.35-1.66-11.94-.93-15.66,1.74-2.81,2.01-4.7,6.24-5.88,9.25-5.02,12.74-9.28,26.56-13.03,42.27-.18.74-.1,1.63.05,2.08.82.4,2.61.67,4.34.19,15.82-4.38,29.23-9.71,41-16.29,2.8-1.58,4-3.97,3.66-7.31ZM0,0v204.25h1154.19V0H0ZM210.23,25.99l-2.88,10.99-21.5,65.25c-6.35,19.25-12.33,35.35-18.85,50.65-4.26,10.01-8.58,17.45-14.02,24.12-11.19,13.74-27.54,21.42-45.34,21.42-1.31,0-2.62-.04-3.94-.12-18.7-1.19-35.34-10.92-45.66-26.69-3.86-5.88-7.07-11.79-9.79-18.04-6.31-14.47-11.58-28.3-16.13-42.27L5.25,28.96c-1.41-4.32-1.15-8.71.73-12.37,1.78-3.47,4.94-6.07,8.88-7.32,15.04-4.74,34.12-.96,40.02,13.57,1.97,4.85,3.67,9.94,5.35,16.02l9.63,34.75c3.24,11.67,6.84,22.3,11,32.51,3.17,7.79,6.94,14.17,11.54,19.52,3.79,4.41,8.87,6.94,14.32,7.11,5.51.18,10.78-2.03,14.89-6.23,3.88-3.97,7.27-9.14,10.34-15.8,4.05-8.77,6.73-15.74,8.68-22.6l12.48-43.83,5.69-18.93c5.11-16.97,25.11-20.94,41.34-16.07,7.63,2.29,11.97,9.47,10.09,16.7ZM382.37,193.64c-5,1.23-10.28,1.85-15.71,1.85l-52.96.06-46.45-.32c-18.96-.13-31.24-7-36.49-20.42-6.3-16.09-5.91-38.59-5.6-56.67l.49-29.55c.08-5.11-.13-11.11-.35-17.46-.6-17.26-1.29-36.83,3.74-48.68,3.78-8.92,12.34-14.51,22.35-14.59l42.37-.32c4.02-.03,8.02-.07,12.02-.11,21.76-.21,44.26-.42,66.62.79,6.01.33,10.25,3.64,11.93,9.34,2.08,6.97,2.12,14.52.1,21.8-1.97,7.12-8.31,11.53-16.1,11.23-33.25-1.29-59.21-1.28-84.16.05-6.71.36-11.33,4.33-12.35,10.64-1.32,8.21-1.58,17.28-.78,27.72.06.79.34,1.41.8,1.81.42.36.97.51,1.65.46,3.89-.31,7.54-1.08,10.85-2.31l36.15-13.44c8.38-3.12,17.88-6.11,24.67-2.15,2.27,1.33,5.16,4.01,6,9.26,3.27,20.51-7.59,28.04-14.35,30.7l-41.73,16.41c-7.04,2.77-12.46,5.11-17.7,8.22-4.02,2.38-5.81,6.56-4.6,10.68,1.54,1.73,10.09,3.98,20.98,3.85l54.28-.64,31.66-.65c7.71-.16,14.3,4.97,16,12.46,3.57,15.6-1.54,27.09-13.33,29.98ZM575,185.2c-2.59,4.44-6.69,7.38-11.85,8.51-5.01,1.11-10.24,1.68-15.55,1.7l-48.36.15-48.39-.19c-6.59-.03-13.16-.94-19.53-2.71-8.57-2.37-15.22-8.25-18.74-16.55-6.75-15.88-6.41-36.92-6.12-55.48.05-3.22.1-6.36.11-9.38l.1-31.18-.14-40.37c-.02-6.14,1.35-12.23,4.09-18.11,4-8.56,12.35-13.71,22.34-13.78l41.73-.26c4.42-.03,8.82-.07,13.2-.11,21.18-.19,43.08-.38,64.83.71,6.51.34,11.07,3.8,12.84,9.73,2.2,7.32,2.08,15.27-.34,22.4-2.27,6.71-8.26,10.57-15.97,10.29-24.93-.92-54.49-1.62-84.72.14-6.42.38-10.76,4.31-11.59,10.53-1.21,8.97-1.41,18.19-.62,27.43.06.71.28,1.67,1.01,2.23.71.54,1.66.51,2.33.39,5.06-.92,10.28-2.42,16.42-4.7l34.24-12.79c5.64-2.1,13.62-3.92,19.6-.67,3.23,1.75,5.38,4.68,6.22,8.46,3.13,14.1-1.99,26.84-12.45,30.98l-31.33,12.39c-1.79.71-3.58,1.4-5.35,2.09-8.3,3.23-16.15,6.29-23.76,10.27-3.58,1.87-7.07,5.95-5.17,11.3.36.4,3.35,3.12,18.9,3.72,14.17.56,27.81.21,42.24-.16,3.88-.1,7.77-.2,11.69-.28l34.27-.7c7.17-.14,13.09,4.12,15.16,10.85,2.67,8.68,2.18,17.12-1.34,23.15ZM694.9,197.04c-8.23,1.3-16.54,1.95-24.84,1.95-26.37,0-52.6-6.52-75.82-19.07-6.25-3.39-10.19-8.85-10.82-14.99-.7-6.85,1.16-13.79,5.39-20.07,4.51-6.7,12.5-9.54,19.43-6.88l10.03,3.84c1.9.72,3.79,1.46,5.66,2.19,6.81,2.66,13.25,5.18,20.2,6.99,15.41,4.05,38.63,5.9,53.36-2.19,3.47-1.9,5.44-5.3,5.39-9.31-.1-9.16-12.9-12.85-27.14-16.11l-37.11-8.5c-11.08-2.53-21.05-6.6-30.49-12.45-13.02-8.04-20.67-21.26-21.55-37.22-1.19-21.51,9.36-40.14,28.22-49.84,33.6-17.28,81.11-11.16,111.58-.67,6.08,2.09,10.48,6.02,12.06,10.78,2.51,7.7,1.23,16.68-3.43,24.05-3.67,5.81-10.15,8.61-16.51,7.14l-10.51-2.44c-17.15-4.95-32.79-7.01-47.82-6.29-10.46.5-22,3.52-23.05,10.51-.53,3.61.61,6.8,3.13,8.72,2.91,2.23,6.14,3.82,9.37,4.6l31.5,7.59,26.51,6.66c9.17,2.3,16.94,6.56,22.68,10.02,14.17,8.55,22.3,22.81,22.91,40.15,1.09,31.64-21.26,54.95-58.33,60.84ZM937.23,195.2c-22.04,2.91-29.44-5.55-31.77-13.17l-11.52-37.71-4.68-11.6c-1.28-3.19-8.34-3.96-15.11-1.64l-40.44,13.82-21.12,9.62c-2.29,1.04-4.05,3.31-5.23,6.74l-6.57,19.24c-3.42,9.99-12.03,15.69-22.66,15.69-2.93,0-6.02-.43-9.19-1.33-8.36-2.37-13.23-10.44-11.33-18.76l4.95-21.47,12.13-41.54,22.39-73.4,6.36-14.7c10.17-23.43,59.15-19.43,75.83-15.32,7.43,1.84,13.05,5.72,16.74,11.54,3.64,5.74,6.46,11.99,8.87,19.65l19.98,63.41,19.63,59.13c.27.8.54,1.59.81,2.38,1.55,4.55,3.16,9.25,3.45,14.67.41,7.59-4.43,13.79-11.52,14.75ZM1146.37,189.03c-1.78,3.06-4.65,5.08-8.31,5.82-6.33,1.28-12.78,1.15-19.17-.41-6.37-1.57-11.36-6.43-13.36-13l-9.86-32.27-5.83-16.54c-1.6-4.54-10.12-3.93-15.67-2.04l-41.52,14.13c-6.67,2.28-13.2,5.36-20.51,9.69-2.18,1.29-3.92,3.32-4.65,5.43l-7.3,21.15c-3.22,9.32-11.74,15.07-22.26,15.07h-.3c-4.39-.05-11.73-.13-16.58-6.3-3.6-4.55-4.69-11.15-2.92-17.66l10.28-37.68,26.56-88.86,6.96-18.51c3.28-8.7,10.66-14.66,21.35-17.23,17.8-4.31,37.01-4.45,55.54-.4,17.17,3.74,22.55,20.79,26.48,33.23l21.88,69.39,19.2,58.2c2.62,7.95,2.62,14.27-.01,18.79ZM1065.52,57.61c-1.82-5.02-5.99-7.26-9.17-8.25-5.35-1.66-11.94-.93-15.66,1.74-2.81,2.01-4.7,6.24-5.88,9.25-5.02,12.74-9.28,26.56-13.03,42.27-.18.74-.1,1.63.05,2.08.82.4,2.61.67,4.34.19,15.82-4.38,29.23-9.71,41-16.29,2.8-1.58,4-3.97,3.66-7.31-.88-8.44-2.62-16.19-5.31-23.68ZM866.25,59.32c-2.31-6.79-8.02-10.65-15.7-10.65-.22,0-.43,0-.65.01-6.3.18-10.7,2.8-13.06,7.79-4.55,9.66-7.99,19.16-10.51,29.05l-4.72,18.54c-.06.26,0,.37.05.45.06.09.29.38.88.46,2.91.42,6.18-.04,10.33-1.44,10.87-3.67,22.4-7.84,33.05-13.53h.01c5.02-2.68,5.34-6.04,5.05-8.66-.83-7.79-2.42-15.2-4.73-22.02ZM870.98,81.34c-.83-7.79-2.42-15.2-4.73-22.02-2.31-6.79-8.02-10.65-15.7-10.65-.22,0-.43,0-.65.01-6.3.18-10.7,2.8-13.06,7.79-4.55,9.66-7.99,19.16-10.51,29.05l-4.72,18.54c-.06.26,0,.37.05.45.06.09.29.38.88.46,2.91.42,6.18-.04,10.33-1.44,10.87-3.67,22.4-7.84,33.05-13.53h.01c5.02-2.68,5.34-6.04,5.05-8.66ZM870.98,81.34c-.83-7.79-2.42-15.2-4.73-22.02-2.31-6.79-8.02-10.65-15.7-10.65-.22,0-.43,0-.65.01-6.3.18-10.7,2.8-13.06,7.79-4.55,9.66-7.99,19.16-10.51,29.05l-4.72,18.54c-.06.26,0,.37.05.45.06.09.29.38.88.46,2.91.42,6.18-.04,10.33-1.44,10.87-3.67,22.4-7.84,33.05-13.53h.01c5.02-2.68,5.34-6.04,5.05-8.66Z"/>
      <path class="cls-2" d="M1146.38,170.24l-19.2-58.2-21.88-69.39c-3.93-12.44-9.31-29.49-26.48-33.23-18.53-4.05-37.74-3.91-55.54.4-10.69,2.57-18.07,8.53-21.35,17.23l-6.96,18.51-26.56,88.86-10.28,37.68c-1.77,6.51-.68,13.11,2.92,17.66,4.85,6.17,12.19,6.25,16.58,6.3h.3c10.52,0,19.04-5.75,22.26-15.07l7.3-21.15c.73-2.11,2.47-4.14,4.65-5.43,7.31-4.33,13.84-7.41,20.51-9.69l41.52-14.13c5.55-1.89,14.07-2.5,15.67,2.04l5.83,16.54,9.86,32.27c2,6.57,6.99,11.43,13.36,13,6.39,1.56,12.84,1.69,19.17.41,3.66-.74,6.53-2.76,8.31-5.82,2.63-4.52,2.63-10.84.01-18.79ZM1040.69,51.1c3.72-2.67,10.31-3.4,15.66-1.74,3.18.99,7.35,3.23,9.17,8.25,2.69,7.49,4.43,15.24,5.31,23.68.34,3.34-.86,5.73-3.66,7.31-11.77,6.58-25.18,11.91-41,16.29-1.73.48-3.52.21-4.34-.19-.15-.45-.23-1.34-.05-2.08,3.75-15.71,8.01-29.53,13.03-42.27,1.18-3.01,3.07-7.24,5.88-9.25Z"/>
      <path class="cls-2" d="M948.75,180.45c-.29-5.42-1.9-10.12-3.45-14.67-.27-.79-.54-1.58-.81-2.38l-19.63-59.13-19.98-63.41c-2.41-7.66-5.23-13.91-8.87-19.65-3.69-5.82-9.31-9.7-16.74-11.54-16.68-4.11-65.66-8.11-75.83,15.32l-6.36,14.7-22.39,73.4-12.13,41.54-4.95,21.47c-1.9,8.32,2.97,16.39,11.33,18.76,3.17.9,6.26,1.33,9.19,1.33,10.63,0,19.24-5.7,22.66-15.69l6.57-19.24c1.18-3.43,2.94-5.7,5.23-6.74l21.12-9.62,40.44-13.82c6.77-2.32,13.83-1.55,15.11,1.64l4.68,11.6,11.52,37.71c2.33,7.62,9.73,16.08,31.77,13.17,7.09-.96,11.93-7.16,11.52-14.75ZM865.93,90h-.01c-10.65,5.69-22.18,9.86-33.05,13.53-4.15,1.4-7.42,1.86-10.33,1.44-.59-.08-.82-.37-.88-.46-.06-.08-.11-.19-.05-.45l4.72-18.54c2.52-9.89,5.96-19.39,10.51-29.05,2.36-4.99,6.76-7.61,13.06-7.79.22-.01.43-.01.65-.01,7.68,0,13.39,3.86,15.7,10.65,2.31,6.82,3.9,14.23,4.73,22.02.29,2.62-.03,5.98-5.05,8.66Z"/>
      <path class="cls-2" d="M694.9,197.04c-8.23,1.3-16.54,1.95-24.84,1.95-26.37,0-52.6-6.52-75.82-19.07-6.25-3.39-10.19-8.85-10.82-14.99-.7-6.85,1.16-13.79,5.39-20.07,4.51-6.7,12.5-9.54,19.43-6.88l10.03,3.84c1.9.72,3.79,1.46,5.66,2.19,6.81,2.66,13.25,5.18,20.2,6.99,15.41,4.05,38.63,5.9,53.36-2.19,3.47-1.9,5.44-5.3,5.39-9.31-.1-9.16-12.9-12.85-27.14-16.11l-37.11-8.5c-11.08-2.53-21.05-6.6-30.49-12.45-13.02-8.04-20.67-21.26-21.55-37.22-1.19-21.51,9.36-40.14,28.22-49.84,33.6-17.28,81.11-11.16,111.58-.67,6.08,2.09,10.48,6.02,12.06,10.78,2.51,7.7,1.23,16.68-3.43,24.05-3.67,5.81-10.15,8.61-16.51,7.14l-10.51-2.44c-17.15-4.95-32.79-7.01-47.82-6.29-10.46.5-22,3.52-23.05,10.51-.53,3.61.61,6.8,3.13,8.72,2.91,2.23,6.14,3.82,9.37,4.6l31.5,7.59,26.51,6.66c9.17,2.3,16.94,6.56,22.68,10.02,14.17,8.55,22.3,22.81,22.91,40.15,1.09,31.64-21.26,54.95-58.33,60.84Z"/>
      <path class="cls-2" d="M575,185.2c-2.59,4.44-6.69,7.38-11.85,8.51-5.01,1.11-10.24,1.68-15.55,1.7l-48.36.15-48.39-.19c-6.59-.03-13.16-.94-19.53-2.71-8.57-2.37-15.22-8.25-18.74-16.55-6.75-15.88-6.41-36.92-6.12-55.48.05-3.22.1-6.36.11-9.38l.1-31.18-.14-40.37c-.02-6.14,1.35-12.23,4.09-18.11,4-8.56,12.35-13.71,22.34-13.78l41.73-.26c4.42-.03,8.82-.07,13.2-.11,21.18-.19,43.08-.38,64.83.71,6.51.34,11.07,3.8,12.84,9.73,2.2,7.32,2.08,15.27-.34,22.4-2.27,6.71-8.26,10.57-15.97,10.29-24.93-.92-54.49-1.62-84.72.14-6.42.38-10.76,4.31-11.59,10.53-1.21,8.97-1.41,18.19-.62,27.43.06.71.28,1.67,1.01,2.23.71.54,1.66.51,2.33.39,5.06-.92,10.28-2.42,16.42-4.7l34.24-12.79c5.64-2.1,13.62-3.92,19.6-.67,3.23,1.75,5.38,4.68,6.22,8.46,3.13,14.1-1.99,26.84-12.45,30.98l-31.33,12.39c-1.79.71-3.58,1.4-5.35,2.09-8.3,3.23-16.15,6.29-23.76,10.27-3.58,1.87-7.07,5.95-5.17,11.3.36.4,3.35,3.12,18.9,3.72,14.17.56,27.81.21,42.24-.16,3.88-.1,7.77-.2,11.69-.28l34.27-.7c7.17-.14,13.09,4.12,15.16,10.85,2.67,8.68,2.18,17.12-1.34,23.15Z"/>
      <path class="cls-2" d="M382.37,193.64c-5,1.23-10.28,1.85-15.71,1.85l-52.96.06-46.45-.32c-18.96-.13-31.24-7-36.49-20.42-6.3-16.09-5.91-38.59-5.6-56.67l.49-29.55c.08-5.11-.13-11.11-.35-17.46-.6-17.26-1.29-36.83,3.74-48.68,3.78-8.92,12.34-14.51,22.35-14.59l42.37-.32c4.02-.03,8.02-.07,12.02-.11,21.76-.21,44.26-.42,66.62.79,6.01.33,10.25,3.64,11.93,9.34,2.08,6.97,2.12,14.52.1,21.8-1.97,7.12-8.31,11.53-16.1,11.23-33.25-1.29-59.21-1.28-84.16.05-6.71.36-11.33,4.33-12.35,10.64-1.32,8.21-1.58,17.28-.78,27.72.06.79.34,1.41.8,1.81.42.36.97.51,1.65.46,3.89-.31,7.54-1.08,10.85-2.31l36.15-13.44c8.38-3.12,17.88-6.11,24.67-2.15,2.27,1.33,5.16,4.01,6,9.26,3.27,20.51-7.59,28.04-14.35,30.7l-41.73,16.41c-7.04,2.77-12.46,5.11-17.7,8.22-4.02,2.38-5.81,6.56-4.6,10.68,1.54,1.73,10.09,3.98,20.98,3.85l54.28-.64,31.66-.65c7.71-.16,14.3,4.97,16,12.46,3.57,15.6-1.54,27.09-13.33,29.98Z"/>
    </g>
  </g>
</svg>