<?xml version="1.0" encoding="UTF-8"?>
<svg id="Layer_2" data-name="Layer 2" xmlns="http://www.w3.org/2000/svg" viewBox="0 0 1154.19 204.26">
  <defs>
    <style>
      .cls-1 {
        fill: #fff;
      }

      .cls-2 {
        fill: none;
      }
    </style>
  </defs>
  <g id="Layer_1-2" data-name="Layer 1">
    <g>
      <g>
        <g>
          <path class="cls-1" d="M872.2,125.41l-40.72,13.91-21.38,9.75c-4.29,1.96-6.91,5.85-8.41,10.24l-6.59,19.25c-3.63,10.63-14.07,13.49-24.53,10.53-5.11-1.45-8.32-6.4-7.11-11.65l4.85-21.13,12.13-41.54,22.27-73.01,6.24-14.38c7.64-17.62,49.93-16.55,68.89-11.88,5.53,1.36,10.04,4.09,13.1,8.92,3.58,5.65,6.16,11.67,8.22,18.24l19.98,63.41,19.65,59.21c1.74,5.23,3.68,10.04,3.97,15.49.23,4.27-2.1,7.91-6.33,8.47-10.27,1.36-22.26.75-25.23-8.96l-11.6-37.96-4.77-11.84c-2.9-7.2-13.64-8.15-22.63-5.08ZM834.79,109.22c11.93-4.02,23.25-8.2,33.96-13.92,5.84-3.12,8.91-8.01,8.2-14.59-.86-7.98-2.47-15.79-5.03-23.31-3.33-9.79-11.97-14.99-22.18-14.71-8.04.22-14.79,3.75-18.32,11.23-4.57,9.68-8.23,19.64-10.9,30.13l-4.72,18.54c-1.03,4.04,1.74,7.74,5.9,8.33s8.6-.18,13.1-1.7Z"/>
          <path class="cls-1" d="M1091.5,130.65c-2.98-8.46-14.46-8.73-23.26-5.73l-41.52,14.13c-7.73,2.63-14.68,6.09-21.64,10.2-3.29,1.95-6.02,5.05-7.26,8.63l-7.31,21.15c-2.56,7.4-9.16,11.11-16.83,11.03-4.4-.05-9.01-.3-11.93-4.01-2.63-3.34-2.99-8.15-1.84-12.39l10.23-37.53,26.51-88.66,6.89-18.32c2.8-7.44,9.37-11.64,17.13-13.51,17.34-4.19,35.42-4.17,52.86-.37,13.28,2.9,17.95,16.23,22.03,29.18l21.89,69.38,19.22,58.28c2.49,7.55,2.84,15.5-3.82,16.85-5.47,1.11-11.1.97-16.56-.37-4.47-1.09-7.69-4.49-9.04-8.91l-9.91-32.4-5.86-16.65ZM1023.77,110.68c15.06-4.17,29.14-9.47,42.33-16.85,5.06-2.83,7.27-7.58,6.7-13.15-.9-8.65-2.7-16.94-5.64-25.1-5.18-14.36-24.68-16.02-33.97-9.35-3.86,2.77-6.21,7.44-7.97,11.93-5.55,14.1-9.74,28.3-13.27,43.07-.66,2.75-.14,6.52,2.06,8.14,2.37,1.75,6.34,2.26,9.77,1.31Z"/>
        </g>
        <g>
          <g>
            <path class="cls-1" d="M448.48,150.81c2.21,6,15.73,7.2,24.26,7.53,18.26.71,35.98-.06,54.28-.44l34.27-.7c4.43-.09,8.04,2.5,9.31,6.62,3.11,10.08,1.54,21.78-8.74,24.03-4.62,1.01-9.38,1.54-14.3,1.55l-48.35.15-48.35-.19c-6.2-.02-12.17-.88-17.95-2.49-6.93-1.92-12.05-6.58-14.82-13.11-7.38-17.4-5.58-42.74-5.52-62.51l.1-31.17-.14-40.41c-.02-5.47,1.3-10.77,3.53-15.56,3.08-6.6,9.48-10.27,16.94-10.32l41.73-.26c26.14-.17,51.72-.7,77.69.6,3.82.19,6.31,1.84,7.39,5.45,1.82,6.06,1.78,12.7-.27,18.75-1.47,4.34-5.24,6.4-10.08,6.22-28.56-1.05-56.74-1.51-85.28.15-9.24.54-15.96,6.66-17.19,15.72-1.29,9.54-1.47,19.19-.66,28.74.48,5.58,4.94,9,10.39,8.02,5.95-1.08,11.68-2.83,17.44-4.99l34.25-12.78c7.73-2.89,16.29-3.62,17.86,3.47,2.14,9.63-.09,20.65-8.81,24.1l-31.32,12.39c-10.18,4.03-20.1,7.62-29.68,12.62-7.09,3.71-10.78,11.2-7.98,18.81Z"/>
            <path class="cls-1" d="M693.95,191.11c-33.51,5.32-67.48-.59-96.87-16.47-4.13-2.23-7.25-5.92-7.7-10.32-.6-5.84,1.26-11.44,4.4-16.1,2.75-4.09,7.64-6.41,12.29-4.63l10.05,3.84c8.86,3.39,17.22,6.97,26.47,9.4,17.6,4.62,41.97,5.94,57.77-2.74,5.57-3.06,8.58-8.58,8.51-14.64-.16-14.3-17.76-18.67-31.8-21.89l-37.12-8.5c-10.33-2.37-19.81-6.23-28.66-11.7-11.7-7.23-17.98-18.83-18.73-32.45-1.04-18.86,8.05-35.47,24.97-44.17,30.1-15.48,75.19-11.24,106.9-.33,3.57,1.23,7.18,3.58,8.3,7,2.11,6.42.66,13.48-2.8,18.96-2.2,3.48-6.02,5.43-10.09,4.49l-10.2-2.35c-16.28-4.7-32.81-7.33-49.77-6.52-11.74.56-26.98,4.17-28.69,15.61-.83,5.55.95,10.98,5.41,14.39,3.37,2.57,7.39,4.64,11.61,5.66l31.49,7.59,26.47,6.64c7.6,1.91,14.42,5.36,21.03,9.34,12.72,7.67,19.51,20.51,20.02,35.22,1.1,31.84-23.07,49.91-53.28,54.7Z"/>
          </g>
          <g>
            <path class="cls-1" d="M267.11,150.64c2.04,6.45,18.11,7.96,26.72,7.86l54.27-.65,31.71-.65c4.96-.1,8.96,3.08,10.03,7.79,2.27,9.97.93,20.41-8.92,22.82-4.59,1.13-9.35,1.67-14.28,1.68l-52.97.06-46.39-.32c-13.5-.09-25.95-3.85-30.94-16.61-6.21-15.86-5.43-39.37-5.13-57.37l.43-26.56c.31-19.09-3.31-49.22,2.91-63.91,2.86-6.75,9.29-10.87,16.88-10.93l42.38-.32c26.34-.2,52.09-.75,78.25.67,3.48.19,5.57,1.84,6.52,5.05,1.77,5.97,1.75,12.42.06,18.5-1.25,4.51-5.1,7.02-10.09,6.82-28.37-1.1-56.33-1.45-84.7.06-9.3.49-16.45,6.33-17.95,15.67s-1.58,19.47-.84,29.14c.37,4.84,4.16,8.17,8.9,7.79,4.22-.33,8.41-1.16,12.46-2.66l36.17-13.45c9.38-3.49,21.13-7.06,22.65,2.43,1.71,10.69-.33,20.13-10.62,24.17l-41.73,16.41c-6.51,2.56-12.65,5.14-18.56,8.64-6.3,3.73-9.42,10.82-7.2,17.84Z"/>
            <path class="cls-1" d="M164.55,27.09c4.08-13.57,21.01-15.9,33.86-12.05,4.21,1.26,7.14,5.1,6.01,9.44l-2.77,10.62-21.49,65.25c-5.67,17.21-11.61,33.6-18.67,50.18-3.51,8.25-7.52,15.76-13.15,22.68-10.95,13.44-27.15,20.18-44.25,19.1s-31.66-9.68-41.02-23.98c-3.59-5.48-6.64-11.05-9.31-17.16-6.01-13.79-11.22-27.3-15.93-41.72L10.95,27.11c-1.78-5.46.46-10.46,5.72-12.11,11.39-3.59,27.83-1.76,32.65,10.11,2.04,5.03,3.67,10.06,5.14,15.36l9.63,34.75c3.16,11.42,6.77,22.25,11.21,33.17,3.18,7.81,7.17,14.91,12.55,21.17,10.15,11.82,27.12,12.33,38.05,1.17,4.87-4.97,8.51-11.01,11.5-17.49,3.55-7.69,6.66-15.24,9-23.46l12.48-43.83,5.67-18.84Z"/>
          </g>
        </g>
      </g>
      <rect class="cls-2" width="1154.19" height="204.26"/>
    </g>
  </g>
</svg>